<svg id="Icon_awesome-arrow-right" data-name="Icon awesome-arrow-right" xmlns="http://www.w3.org/2000/svg" width="25" height="23.166" viewBox="0 0 25 23.166">
  <path id="Icon_awesome-arrow-right-2" data-name="Icon awesome-arrow-right" d="M10.629,4.2l1.239-1.178a1.383,1.383,0,0,1,1.892,0L24.607,13.328a1.224,1.224,0,0,1,0,1.8L13.76,25.439a1.383,1.383,0,0,1-1.892,0l-1.239-1.178a1.231,1.231,0,0,1,.022-1.819l6.724-6.09H1.339A1.3,1.3,0,0,1,0,15.079v-1.7a1.3,1.3,0,0,1,1.339-1.273H17.375l-6.724-6.09A1.223,1.223,0,0,1,10.629,4.2Z" transform="translate(0 -2.647)" fill="#e51007"/>
</svg>
