<?xml version="1.0" encoding="utf-8"?>
<!-- Generator: Adobe Illustrator 27.0.0, SVG Export Plug-In . SVG Version: 6.00 Build 0)  -->
<svg version="1.1" id="Ebene_1" xmlns="http://www.w3.org/2000/svg" xmlns:xlink="http://www.w3.org/1999/xlink" x="0px" y="0px"
	 viewBox="0 0 226.8 226.8" style="enable-background:new 0 0 226.8 226.8;" width="80" height="80" xml:space="preserve">
<g>
	<path d="M200,41.6c-2.8,2.1-5.5,4.1-8.4,6.1c-20.5-23.4-46.4-36.1-77.9-36.4C89,11.1,66.9,19.2,48,35.1
		C8.6,68.2-0.3,124.9,26.8,167.5c27.7,43.4,82.3,59.9,128.3,39.1c48.3-21.8,76.2-81.4,51.3-135.5c3-1.5,5.9-3.1,8.9-4.6
		c19.9,38.5,14.7,100.9-35.4,137.8C130.5,240.6,60.6,230.9,23,180.6c-37.3-50-27.1-120.8,23.7-158C97.6-14.6,164.8-2,200,41.6z"/>
	<path d="M193.7,113.2c0,6.8,0.1,13.6,0,20.4c0,2.4-0.2,4.9-0.7,7.3c-3.1,16.4-19.8,24.4-34.7,16.8c-6.2-3.2-9.5-8.5-11-15
		c-0.7-2.9-1-6-1-9c-0.1-13.7-0.1-27.4,0-41.1c0-5.5,1-10.9,3.8-15.8c2.1-3.7,5.1-6.5,9.1-8.2c9.7-4.3,23-1.9,28.9,5.6
		c4.4,5.5,5.6,12.1,5.7,18.9C193.7,99.8,193.7,106.5,193.7,113.2z M177.8,113.3c0-6.7,0.1-13.4-0.1-20.1c-0.1-2.9-0.4-5.9-1.4-8.6
		c-1.1-3.3-3.6-4.7-6.8-4.5c-3.2,0.2-5.6,2-6.5,5.4c-0.6,2.2-0.9,4.5-1,6.7c-0.1,14-0.1,28,0,42c0,2.9,0.7,5.8,1.7,8.5
		c1,2.7,3.3,4,6.3,3.9c3-0.1,5.2-1.5,6-4.3c0.8-2.9,1.4-5.9,1.5-8.9C177.9,126.7,177.8,120,177.8,113.3z"/>
	<path d="M136.2,90.8c-4.9,0-9.7,0-14.7,0c-0.3-2.1-0.5-4.2-0.9-6.2c-0.8-3.8-2.6-5.3-6.4-5.6c-3.3-0.3-6.2,1.4-7.1,4.8
		c-0.9,3.3-1.4,6.8-1.7,10.3c-0.3,4.3-0.1,8.7-0.1,13.4c1.3-1,2.3-1.9,3.4-2.6c8.9-5.5,22-1.8,25.6,8c4.6,12.2,4.2,24.6-1.5,36.4
		c-4.7,9.6-17.3,13.4-28.4,9.2c-8.8-3.4-12.3-10.7-14.1-19.1c-0.1-0.6-0.2-1.1-0.2-1.7c-1.7-16.8-2.1-33.6,0.3-49.6
		c0-2.6,1-5.2,1.9-7.7c2.9-7.9,8.5-12.6,17-13.4c3.2-0.3,6.4-0.3,9.6,0.1C130.7,68.6,137.5,78,136.2,90.8z M105.4,128.3
		C105.4,128.3,105.4,128.3,105.4,128.3c0,2.3-0.2,4.6,0.1,6.8c0.4,2.9,0.9,5.8,1.8,8.5c1,2.8,3.5,4.1,6.5,4.1
		c3.1-0.1,5.3-1.7,6.2-4.6c2.3-7.8,2.3-15.7,0.3-23.5c-1-4-4.3-5.5-8.4-4.9c-3.2,0.5-7.2,3.9-6.6,7.6
		C105.6,124.3,105.4,126.3,105.4,128.3z"/>
	<path d="M52.4,117.4c0-4.4,0-8.6,0-12.8c1.9-0.3,3.7-0.5,5.4-0.8c3.6-0.7,6.2-2.8,6.6-6.5c0.4-4.2,0.4-8.5-0.2-12.6
		c-0.5-3.7-3.3-5.3-7.3-5.4c-3.8,0-6.2,1.6-7.2,5.2c-0.5,1.7-0.7,3.5-0.9,5.3c-0.2,1.7-0.2,3.4-0.3,5.3c-5.1,0-10.1,0-15.1,0
		c-2.5-11.8,3.3-23.5,13.4-27C59.7,63.7,73.3,68,78.2,78c5.9,12,2.4,25.2-8.7,32.5c0.6,0.4,1.1,0.8,1.7,1.1c4.3,2.5,7.1,6.2,8.3,11
		c2.1,8.2,1.8,16.3-1.1,24.3c-2.7,7.3-7.9,11.8-15.6,12.7c-4.5,0.5-9.3,0.4-13.8-0.4c-7.1-1.3-11.6-5.9-14-12.7
		c-1.7-4.9-2.1-9.9-1.7-15.3c5.2,0,10.2,0,15.2,0c0.4,3.3,0.6,6.5,1.2,9.6c0.9,4.5,3.4,6.4,7.8,6.2c4.1-0.1,6.6-2.1,7-6.7
		c0.5-4.6,0.6-9.3,0-13.8c-0.8-6.2-3.9-8.5-10.2-9C53.7,117.5,53.2,117.4,52.4,117.4z"/>
	<path d="M213.8,56.5c-0.2,5.1-4.6,9.2-9.7,9.1c-5.3-0.2-9.4-4.5-9.2-9.9c0.2-5.2,4.5-9.2,9.7-9.1C209.8,46.8,214,51.3,213.8,56.5z
		 M204.3,52c-2.2,0-4.2,2.1-4.1,4.2c0.1,2.1,2,3.9,4,4c2.2,0.1,4.2-1.8,4.2-4C208.4,54,206.5,52,204.3,52z"/>
</g>
</svg>
