<?xml version="1.0" encoding="utf-8"?>
<!-- Generator: Adobe Illustrator 26.3.0, SVG Export Plug-In . SVG Version: 6.00 Build 0)  -->
<svg version="1.1" id="Ebene_1" xmlns="http://www.w3.org/2000/svg" xmlns:xlink="http://www.w3.org/1999/xlink" x="0px" y="0px" width="73.2px" height="73.2px"
	 viewBox="0 0 73.2 73.2" style="enable-background:new 0 0 73.2 73.2;" xml:space="preserve">
<style type="text/css">
	.st0{display:none;}
	.st1{display:inline;fill:#FF0000;}
</style>
<g id="Ebene_2_1_" class="st0">
	<rect x="-266" y="-216" class="st1" width="2300" height="1716.6"/>
</g>
<g>
	<rect x="32.1" y="66.1" width="4.6" height="5.9"/>
	<rect x="16.4" y="66.1" width="7.9" height="5.9"/>
	<polygon points="7.1,64.5 1.2,64.5 1.2,72.1 8.5,72.1 8.5,66.1 7.1,66.1 	"/>
	<rect x="1.2" y="17" width="5.9" height="7.9"/>
	<rect x="1.2" y="48.7" width="5.9" height="7.9"/>
	<rect x="1.2" y="32.8" width="5.9" height="7.9"/>
	<polygon points="1.2,8.5 7.1,8.5 7.1,7.1 8.5,7.1 8.5,1.1 1.2,1.1 	"/>
	<rect x="32.5" y="1.1" width="7.9" height="5.9"/>
	<rect x="48.3" y="1.1" width="7.9" height="5.9"/>
	<rect x="16.6" y="1.1" width="7.9" height="5.9"/>
	<polygon points="66.2,8.5 72.1,8.5 72.1,1.1 64.6,1.1 64.6,7.1 66.2,7.1 	"/>
	<rect x="66.2" y="16.4" width="5.9" height="7.9"/>
	<rect x="66.2" y="32" width="5.9" height="4.6"/>
	<polygon points="72.1,66.2 61.5,55.6 72,48.3 36.4,36.2 48.5,71.7 56,61 66.7,71.7 	"/>
</g>
</svg>
