<?xml version="1.0" encoding="utf-8"?>
<!-- Generator: Adobe Illustrator 23.0.1, SVG Export Plug-In . SVG Version: 6.00 Build 0)  -->
<svg version="1.1" id="Ebene_1" xmlns="http://www.w3.org/2000/svg" xmlns:xlink="http://www.w3.org/1999/xlink" x="0px" y="0px"
	 viewBox="0 0 22.7 23" style="enable-background:new 0 0 22.7 23;" xml:space="preserve">
<style type="text/css">
	.st0{clip-path:url(#SVGID_2_);fill:none;stroke:#70973c;stroke-width:1.5064;}
	.st1{clip-path:url(#SVGID_2_);fill:#70973c;}
</style>
<g>
	<defs>
		<rect id="SVGID_1_" x="1.3" y="1.5" width="20" height="20"/>
	</defs>
	<clipPath id="SVGID_2_">
		<use xlink:href="#SVGID_1_"  style="overflow:visible;"/>
	</clipPath>
	<path class="st0" d="M11.3,20.7c5.1,0,9.2-4.1,9.2-9.2c0-5.1-4.1-9.2-9.2-9.2s-9.2,4.1-9.2,9.2C2.1,16.6,6.2,20.7,11.3,20.7z"/>
	<path class="st1" d="M15.6,13.4c-0.3,0.2-0.5,0.3-0.9,0.3c-0.5,0-0.9-0.2-1.1-0.5c-0.3-0.3-0.4-0.9-0.4-1.7c0-0.8,0.1-1.3,0.4-1.7
		c0.3-0.3,0.7-0.5,1.2-0.5c0.3,0,0.6,0.1,0.9,0.3c0.2,0.2,0.4,0.5,0.5,0.8l1.3-0.3c-0.1-0.5-0.4-0.9-0.7-1.2
		c-0.5-0.5-1.1-0.7-1.9-0.7c-0.9,0-1.6,0.3-2.2,0.9c-0.6,0.6-0.8,1.4-0.8,2.5c0,1,0.3,1.8,0.8,2.4c0.6,0.6,1.3,0.9,2.1,0.9
		c0.7,0,1.3-0.2,1.7-0.5c0.5-0.3,0.8-0.9,1-1.6l-1.3-0.4C16.1,12.8,15.9,13.2,15.6,13.4 M9.1,13.4c-0.3,0.2-0.5,0.3-0.9,0.3
		c-0.5,0-0.9-0.2-1.1-0.5c-0.3-0.3-0.4-0.9-0.4-1.7c0-0.8,0.1-1.3,0.4-1.7c0.3-0.3,0.7-0.5,1.2-0.5c0.3,0,0.6,0.1,0.9,0.3
		c0.2,0.2,0.4,0.5,0.5,0.8l1.3-0.3c-0.1-0.5-0.4-0.9-0.7-1.2C9.7,8.4,9.1,8.2,8.3,8.2C7.4,8.2,6.7,8.5,6.1,9
		c-0.6,0.6-0.8,1.4-0.8,2.5c0,1,0.3,1.8,0.8,2.4c0.6,0.6,1.3,0.9,2.1,0.9c0.7,0,1.3-0.2,1.7-0.5c0.5-0.3,0.8-0.9,1-1.6l-1.3-0.4
		C9.5,12.8,9.3,13.2,9.1,13.4"/>
</g>
</svg>
