<?xml version="1.0" encoding="utf-8"?>
<!-- Generator: Adobe Illustrator 22.1.0, SVG Export Plug-In . SVG Version: 6.00 Build 0)  -->
<svg version="1.1" id="Ebene_1" xmlns="http://www.w3.org/2000/svg" xmlns:xlink="http://www.w3.org/1999/xlink" x="0px" y="0px"
	 viewBox="0 0 506.4 124.4" style="enable-background:new 0 0 506.4 124.4;" xml:space="preserve">
<style type="text/css">
	.st0{fill:#FFFFFF;}
</style>
<g>
	<path class="st0" d="M24.4,38.9c0.5,0,0.9,0,1.4,0c18.2,0,36.3-0.1,54.5,0c9.2,0.1,17.3,3,23.6,10c8,9,11.1,23.4,2.7,36.2
		c-5.5,8.5-13.3,13.5-23,15.7c-0.2,0.1-0.4,0.1-0.9,0.2c6.5,3.8,12.5,7.9,13.8,15.9c-1.6-2-3-4.3-4.8-6.1
		c-5.9-5.7-13.1-8.9-21.4-9.3c-4.3-0.2-7.7,1.7-10.2,5.2c-6.5,8.9-15.5,14-26.2,16.2c-6.6,1.3-13.3,1.3-19.8-1
		c-5.2-1.8-9.6-4.7-11.7-10c-3.2-7.7-1.6-15.3,6-19.6c6.3-3.6,15.5-1.6,19.4,4.1c3.1,4.4,3.4,12,0.3,16.4c-1.4,2-3.4,3.7-5,5.6
		c-0.5,0.6-0.8,1.3-1.2,1.9c0.7,0.4,1.4,1,2.1,1.1c1.6,0.2,3.3,0.3,4.9,0.2c2.4-0.2,4.2-1.6,5.2-3.9c1.5-3.3,1.7-6.7,1.7-10.2
		c0.1-18.2,0.1-36.4,0.1-54.6c0-2.5-0.3-5-0.7-7.5c-0.4-2.4-1.8-3.6-4.2-3.9c-1.7-0.2-3.4-0.4-5.1-0.5
		C24.2,40.8,24.2,40.8,24.4,38.9z M63.7,51.4L63.7,51.4c0.2,1,0.1,2,0.4,3c0.8,3.1,1.7,6.1,2.5,9.2c2.2,8.6,5.6,16.7,8.9,24.9
		c1.2,3.1,3,6,5.7,8c3.7,2.9,8.9,1.3,10.1-3.2c0.6-2.1,0.7-4.5,0.4-6.6c-0.7-3.7-1.9-7.3-2.9-11c-2.2-8.4-5.5-16.5-8.9-24.5
		c-0.6-1.4-1.3-2.8-2.3-3.9c-1.1-1.4-2.3-2.8-3.8-3.8c-3.5-2.3-8.1-0.5-9.3,3.5C64,48.4,63.9,49.9,63.7,51.4z"/>
	<path class="st0" d="M59.4,0.6c1.3,0.1,2.5,0.2,3.8,0.2c0.9,0,1,0.5,0.8,1.2c-0.2,1-0.9,1.4-1.8,1.5c-0.5,0.1-1,0-1.4,0.1
		c-2.1,0.4-3,2.2-1.9,4.1c0.5,0.9,1.1,1.8,1.9,2.6c5.8,5.6,4.6,16.5-5.7,19.8c-7,2.3-14.8-0.9-17.8-7.1c-3.1-6.3-0.7-14.6,5.5-18.2
		c4.4-2.6,9.3-3.6,14.4-4C57.9,0.8,58.6,0.7,59.4,0.6C59.4,0.7,59.4,0.6,59.4,0.6z"/>
	<path class="st0" d="M89.3,118c-3.1-5.3-7.7-8.1-13.3-9.2c-1.4-0.3-2.9-0.3-4.3-0.1c-2.2,0.3-4,1.3-4.6,3.7c-1-1.9-0.2-4.1,1.7-5.2
		c2.2-1.2,4.5-1.2,6.9-0.7c4.8,0.9,8.8,3.1,11.9,7C88.5,114.7,89.3,116.1,89.3,118z"/>
	<path class="st0" d="M83.1,118.7c-2.9-3.8-7.3-4.9-9.3-2.4c-0.3-1.1-0.1-1.6,0.9-2.1C77.4,113,82.5,115.6,83.1,118.7z"/>
</g>
<g>
	<path class="st0" d="M171.7,113h49v8.7h-58.4V2.7h9.4V113z"/>
	<path class="st0" d="M308.3,75.1c0,15.4-3.4,27.2-10.1,35.6c-6.7,8.4-16.2,12.6-28.3,12.6c-12,0-21.5-4.2-28.3-12.6
		c-6.8-8.4-10.3-20.2-10.3-35.4V49.4c0-15.3,3.4-27.2,10.2-35.6c6.8-8.5,16.2-12.7,28.3-12.7c12.2,0,21.7,4.2,28.4,12.7
		c6.7,8.5,10.1,20.4,10.1,35.8V75.1z M298.9,49.3c0-13-2.5-22.8-7.5-29.3c-5-6.5-12.2-9.8-21.6-9.8c-9.1,0-16.2,3.2-21.3,9.6
		c-5.1,6.4-7.7,16-7.8,28.7v26.6c0,13.1,2.6,22.9,7.8,29.4c5.2,6.6,12.4,9.8,21.6,9.8c9.5,0,16.7-3.3,21.6-9.8
		c4.9-6.5,7.4-16.4,7.4-29.5V49.3z"/>
	<path class="st0" d="M405.7,107.8c-4,5.1-9,9-15,11.6c-6,2.6-12.7,3.9-19.8,3.9c-12.2,0-21.8-4.1-28.7-12.2
		c-7-8.2-10.6-19.5-10.9-34V48.1c0-15.2,3.3-26.8,9.9-34.9c6.6-8.1,16-12.1,28.3-12.1c10.9,0,19.5,3,25.7,9.1
		c6.2,6,9.7,14.8,10.5,26.1h-9.3c-1-9.1-3.7-15.8-8-20c-4.4-4.2-10.6-6.3-18.7-6.3c-9.7,0-16.9,3.2-21.8,9.7
		c-4.8,6.5-7.2,15.9-7.2,28.4v27.4c0,12.4,2.7,22,8,28.9c5.3,6.9,12.8,10.3,22.3,10.3c10.4,0,18.9-3.3,25.5-9.9v-31h-26V65h35.4
		V107.8z"/>
	<path class="st0" d="M506.2,75.1c0,15.4-3.4,27.2-10.1,35.6c-6.7,8.4-16.2,12.6-28.3,12.6c-12,0-21.5-4.2-28.3-12.6
		c-6.8-8.4-10.3-20.2-10.3-35.4V49.4c0-15.3,3.4-27.2,10.2-35.6c6.8-8.5,16.2-12.7,28.3-12.7c12.2,0,21.7,4.2,28.4,12.7
		c6.7,8.5,10.1,20.4,10.1,35.8V75.1z M496.8,49.3c0-13-2.5-22.8-7.5-29.3c-5-6.5-12.2-9.8-21.6-9.8c-9.1,0-16.2,3.2-21.3,9.6
		c-5.1,6.4-7.7,16-7.8,28.7v26.6c0,13.1,2.6,22.9,7.8,29.4c5.2,6.6,12.4,9.8,21.6,9.8c9.5,0,16.7-3.3,21.6-9.8
		c4.9-6.5,7.4-16.4,7.4-29.5V49.3z"/>
</g>
</svg>
