<?xml version="1.0" encoding="utf-8"?>
<!-- Generator: Adobe Illustrator 22.1.0, SVG Export Plug-In . SVG Version: 6.00 Build 0)  -->
<svg version="1.1" id="Ebene_1" xmlns="http://www.w3.org/2000/svg" xmlns:xlink="http://www.w3.org/1999/xlink" x="0px" y="0px"
	 viewBox="0 0 110.8 123.4" style="enable-background:new 0 0 110.8 123.4;" xml:space="preserve">
<style type="text/css">
	.st0{fill:#FFFFFF;}
</style>
<g>
	<path class="st0" d="M23.6,38.3c0.5,0,0.9,0,1.4,0c18.2,0,36.3-0.1,54.5,0c9.2,0.1,17.3,3,23.6,10c8,9,11.1,23.4,2.7,36.2
		c-5.5,8.5-13.3,13.5-23,15.7c-0.2,0.1-0.4,0.1-0.9,0.2c6.5,3.8,12.5,7.9,13.8,15.9c-1.6-2-3-4.3-4.8-6.1
		c-5.9-5.7-13.1-8.9-21.4-9.3c-4.3-0.2-7.7,1.7-10.2,5.2c-6.5,8.9-15.5,14-26.2,16.2c-6.6,1.3-13.3,1.3-19.8-1
		c-5.2-1.8-9.6-4.7-11.7-10c-3.2-7.7-1.6-15.3,6-19.6c6.3-3.6,15.5-1.6,19.4,4.1c3.1,4.4,3.4,12,0.3,16.4c-1.4,2-3.4,3.7-5,5.6
		c-0.5,0.6-0.8,1.3-1.2,1.9c0.7,0.4,1.4,1,2.1,1.1c1.6,0.2,3.3,0.3,4.9,0.2c2.4-0.2,4.2-1.6,5.2-3.9c1.5-3.3,1.7-6.7,1.7-10.2
		c0.1-18.2,0.1-36.4,0.1-54.6c0-2.5-0.3-5-0.7-7.5c-0.4-2.4-1.8-3.6-4.2-3.9c-1.7-0.2-3.4-0.4-5.1-0.5
		C23.4,40.2,23.4,40.2,23.6,38.3z M62.9,50.8L62.9,50.8c0.2,1,0.1,2,0.4,3c0.8,3.1,1.7,6.1,2.5,9.2c2.2,8.6,5.6,16.7,8.9,24.9
		c1.2,3.1,3,6,5.7,8c3.7,2.9,8.9,1.3,10.1-3.2c0.6-2.1,0.7-4.5,0.4-6.6c-0.7-3.7-1.9-7.3-2.9-11c-2.2-8.4-5.5-16.5-8.9-24.5
		c-0.6-1.4-1.3-2.8-2.3-3.9c-1.1-1.4-2.3-2.8-3.8-3.8c-3.5-2.3-8.1-0.5-9.3,3.5C63.2,47.8,63.1,49.3,62.9,50.8z"/>
	<path class="st0" d="M58.6,0c1.3,0.1,2.5,0.2,3.8,0.2c0.9,0,1,0.5,0.8,1.2c-0.2,1-0.9,1.4-1.8,1.5c-0.5,0.1-1,0-1.4,0.1
		c-2.1,0.4-3,2.2-1.9,4.1C58.6,8,59.2,8.9,60,9.7c5.8,5.6,4.6,16.5-5.7,19.8c-7,2.3-14.8-0.9-17.8-7.1C33.4,16.1,35.8,7.8,42,4.2
		c4.4-2.6,9.3-3.6,14.4-4C57.1,0.2,57.8,0.1,58.6,0C58.6,0.1,58.6,0,58.6,0z"/>
	<path class="st0" d="M88.5,117.4c-3.1-5.3-7.7-8.1-13.3-9.2c-1.4-0.3-2.9-0.3-4.3-0.1c-2.2,0.3-4,1.3-4.6,3.7
		c-1-1.9-0.2-4.1,1.7-5.2c2.2-1.2,4.5-1.2,6.9-0.7c4.8,0.9,8.8,3.1,11.9,7C87.7,114.1,88.5,115.5,88.5,117.4z"/>
	<path class="st0" d="M82.3,118.1c-2.9-3.8-7.3-4.9-9.3-2.4c-0.3-1.1-0.1-1.6,0.9-2.1C76.6,112.4,81.7,115,82.3,118.1z"/>
</g>
</svg>
