<?xml version="1.0" encoding="utf-8"?>
<!-- Generator: Adobe Illustrator 26.3.1, SVG Export Plug-In . SVG Version: 6.00 Build 0)  -->
<svg version="1.1" id="Ebene_1" xmlns="http://www.w3.org/2000/svg" xmlns:xlink="http://www.w3.org/1999/xlink" x="0px" y="0px"
	 viewBox="0 0 85.8 65.8" width="85.8" height="65.8" style="enable-background:new 0 0 85.8 65.8;" xml:space="preserve">
<style type="text/css">
	.st0{fill:#ffffff;}
</style>
<path class="st0" d="M72.3,19.9c-1-0.8-2-1.5-2.9-2.2l16.3-12l-4.1-5.6L62.9,13.8C56.2,10.2,49.4,8.3,43,8.3
	c-9.4,0-19.6,4-29.3,11.5C6.4,25.5,1.9,31,1.7,31.3l-1.3,1.6l1.3,1.6c0.2,0.2,4.7,5.8,11.9,11.4c0.9,0.7,1.9,1.4,2.8,2.1L0.2,60
	l4.1,5.6L22.9,52c6.8,3.6,13.6,5.4,20.1,5.4c9.4,0,19.6-4,29.3-11.5c7.3-5.6,11.7-11.2,11.9-11.4l1.3-1.6l-1.2-1.6
	C84,31.1,79.5,25.5,72.3,19.9z M43,13.8c4.9,0,9.3,2.1,12.6,5.4l-4.1,3c-2.3-1.9-5.3-3-8.5-3c-1.8,0-3.5,0.4-5.1,1
	c2.7,0.1,4.9,2.3,4.9,5.1c0,2.8-2.3,5.1-5.1,5.1c-2.8,0-5.1-2.3-5.1-5.1c0-0.6,0.1-1.1,0.3-1.6c-2.2,2.4-3.6,5.7-3.6,9.2
	c0,1.7,0.3,3.4,0.9,4.9l-3.8,2.8c-1-2.4-1.6-5-1.6-7.7C24.9,22.4,33,13.8,43,13.8z M16.9,42c-4.6-3.6-8-7.1-9.8-9.1
	c1.8-2,5.2-5.5,9.8-9.1c2.1-1.7,4.7-3.4,7.6-5c-2.8,4-4.4,8.8-4.4,14.1c0,3.8,0.9,7.4,2.4,10.6l-1.7,1.2
	C19.4,43.8,18.1,42.9,16.9,42z M43,52c-5,0-9.4-2.1-12.7-5.5l4-3c2.4,1.9,5.4,3.1,8.7,3.1c7.6,0,13.7-6.1,13.7-13.7
	c0-1.8-0.4-3.5-1-5.1l3.8-2.8c1,2.4,1.6,5.1,1.6,7.9C61.1,43.4,52.9,52,43,52z M69.1,41.9c-2.1,1.7-4.7,3.4-7.6,5
	c2.8-4,4.4-8.8,4.4-14.1c0-3.9-0.9-7.5-2.4-10.7l1.6-1.2c1.4,1,2.8,1.9,4,2.8c4.6,3.5,8,7.1,9.8,9.1C77,34.9,73.6,38.4,69.1,41.9z"
	/>
</svg>
