<svg width="500" height="300" xmlns="http://www.w3.org/2000/svg" preserveAspectRatio="none slice">
 <style type="text/css">.st0{display:none;}
	.st1{display:inline;fill:#999999;}
	.st2{fill:#FFFFFF;}
	.st3{fill:#D6D6D6;}
	.st4{fill:#666666;}
	.st5{fill:#1E1E1C;}</style>

 <g>
  <title>background</title>
  <rect x="-1" y="-1" width="502" height="302" id="canvas_background" fill="none"/>
 </g>
 <g>
  <title>Layer 1</title>
  <g id="svg_208">
   <path class="st2" d="m106,851.2l0,29.4l-53.8,0l0,-33.7l5.9,0l0,-9.1l-6.8,0c-4.5,0 -8.2,3.7 -8.2,8.2l0,35.5c0,4.5 3.7,8.2 8.2,8.2l55.6,0c4.5,0 8.2,-3.7 8.2,-8.2l0,-35.5l-9.1,5.2z" id="svg_209"/>
   <rect x="55.9" y="868" class="st2" width="46.5" height="8.3" id="svg_210"/>
   <rect x="55.9" y="855.3" class="st2" width="46.5" height="8.3" id="svg_211"/>
   <path class="st2" d="m105.6,839l-14.4,-8.3l0,4.3c0,0 -11.5,-0.8 -12.2,12.3c0,0 3.9,-5.1 12.2,-4.3l0,4.3l14.4,-8.3z" id="svg_212"/>
   <path class="st2" d="m93,847.7" id="svg_213"/>
   <g id="svg_214">
    <path class="st2" d="m42.7,800.2c1.5,-0.3 3.6,-0.5 5.6,-0.5c3.2,0 5.7,0.5 7.5,2.1c1.6,1.4 2.4,3.7 2.4,6.1c0,3 -0.9,5.1 -2.3,6.7c-1.7,1.8 -4.5,2.6 -6.7,2.6c-0.4,0 -0.7,0 -1.1,0l0,10.3l-5.4,0l0,-27.3zm5.4,12.5c0.2,0.1 0.5,0.1 0.9,0.1c2.7,0 3.9,-1.9 3.9,-4.5c0,-2.4 -1,-4.3 -3.5,-4.3c-0.5,0 -1,0.1 -1.3,0.2c0,0 0,8.5 0,8.5z" id="svg_215"/>
    <path class="st2" d="m61.5,800.2c1.4,-0.3 3.3,-0.5 5.5,-0.5c3.5,0 5.9,0.8 7.7,2.5c2.4,2.1 3.6,5.8 3.6,11.2c0,5.6 -1.4,9.6 -3.9,11.7c-1.9,1.8 -4.6,2.7 -8.5,2.7c-1.7,0 -3.4,-0.2 -4.4,-0.3c0,0 0,-27.3 0,-27.3zm5.4,23c0.2,0.1 0.7,0.1 0.9,0.1c2.6,0 4.9,-2.5 4.9,-10.2c0,-5.7 -1.5,-9.1 -4.7,-9.1c-0.4,0 -0.7,0 -1.1,0.1c0,0 0,19.1 0,19.1z" id="svg_216"/>
    <path class="st2" d="m81.7,799.8l12,0l0,4.7l-6.7,0l0,7.1l6.2,0l0,4.5l-6.2,0l0,11.4l-5.4,0l0.1,-27.7l0,0z" id="svg_217"/>
   </g>
  </g>
  <path d="m27.9125,56l28.6875,33.58704l28.6875,-33.58704l8.8125,10.35142l-37.5,44.04858l-37.5,-44.04858l8.8125,-10.35142z" id="svg_432" stroke="null" transform="rotate(-90 56.5999984741211,83.19999694824219) " fill="#cd1316"/>
  <path d="m152.5,61.6l30.6,30.5l30.6,-30.5l9.4,9.4l-40,40l-40,-40l9.4,-9.4z" id="svg_435" stroke="null" fill="#cd1316"/>
  <path d="m273.5,63.6l30.6,30.5l30.6,-30.5l9.4,9.4l-40,40l-40,-40l9.4,-9.4z" id="svg_436" transform="rotate(90 304.1000061035157,88.30000305175784) " fill="#cd1316"/>
  <path d="m397.5,63.6l30.6,30.5l30.6,-30.5l9.4,9.4l-40,40l-40,-40l9.4,-9.4z" id="svg_437" transform="rotate(180 428.1000061035156,88.30000305175781) " fill="#cd1316"/>
  <path d="m29.9125,188.999994l28.6875,33.58705l28.6875,-33.58705l8.8125,10.35142l-37.5,44.04858l-37.5,-44.04858l8.8125,-10.35142z" id="svg_445" stroke="null" transform="rotate(-90 58.5999984741211,216.1999969482422) "/>
  <path d="m154.5,194.999994l30.6,30.5l30.6,-30.5l9.4,9.4l-40,40l-40,-40l9.4,-9.4z" id="svg_446" stroke="null"/>
  <path d="m275.5,196.999994l30.6,30.5l30.6,-30.5l9.4,9.4l-40,40l-40,-40l9.4,-9.4z" id="svg_447" transform="rotate(90 306.1000061035157,221.69999694824222) "/>
  <path d="m399.5,196.999994l30.6,30.5l30.6,-30.5l9.4,9.4l-40,40l-40,-40l9.4,-9.4z" id="svg_448" transform="rotate(180 430.1000061035156,221.6999969482422) "/>
 </g>
</svg>