<?xml version="1.0" encoding="utf-8"?>
<!-- Generator: Adobe Illustrator 22.1.0, SVG Export Plug-In . SVG Version: 6.00 Build 0)  -->
<svg version="1.1" id="Ebene_1" xmlns="http://www.w3.org/2000/svg" xmlns:xlink="http://www.w3.org/1999/xlink" x="0px" y="0px"
	 viewBox="0 0 80.8 29" style="enable-background:new 0 0 80.8 29;" xml:space="preserve">
<style type="text/css">
	.st0{display:none;}
	.st1{display:inline;}
	.st2{clip-path:url(#SVGID_2_);fill:#454D59;}
	.st3{clip-path:url(#SVGID_4_);fill:#454D59;}
</style>
<g class="st0">
	<g class="st1">
		<defs>
			<rect id="SVGID_1_" y="1.1" width="80.8" height="26.8"/>
		</defs>
		<clipPath id="SVGID_2_">
			<use xlink:href="#SVGID_1_"  style="overflow:visible;"/>
		</clipPath>
		<path class="st2" d="M79.7,14.3H12.3c-0.1-0.7-0.2-1.5-0.3-2.2c5.3-2.9,10.6-5.7,16-8.6c-0.2-0.5-0.5-1-0.7-1.5
			C18.6,4.9,9.9,7.6,1.4,10.7c-0.5,0.2-0.6,4.5,0.4,5.6c3.3,3.6,7.2,6.8,11.1,9.8c1.1,0.9,3.1,0.6,4.6,0.8c-0.5-1.3-1-2.8-1.7-4
			c-0.7-1.3-1.8-2.5-2.6-3.7c1.6-0.4,3.2-1,4.9-1c17.5-0.1,35.1-0.1,52.6-0.3c3,0,6-0.7,9-1.1C79.7,16,79.7,15.2,79.7,14.3"/>
	</g>
</g>
<g>
	<g>
		<defs>
			<rect id="SVGID_3_" y="-0.1" width="60.1" height="29.1"/>
		</defs>
		<clipPath id="SVGID_4_">
			<use xlink:href="#SVGID_3_"  style="overflow:visible;"/>
		</clipPath>
		<path class="st3" d="M1,12.7c13.1-0.7,26.2-1.4,39.3-2.1c1.8-0.1,3.6,0,5.4-0.1c0.8-0.1,1.6-0.5,2.4-0.8c-0.6-0.8-1.1-1.9-1.9-2.4
			c-3.6-2.1-7.3-3.9-10.8-6.4c8.8,0,16.2,3.6,23.1,8.5c0.8,0.5,0.7,4-0.1,4.7c-5.7,4.8-11.6,9.2-17.6,13.5c-1,0.7-2.8,0.2-4.2,0.3
			c0.4-1.2,0.8-2.4,1.4-3.5c0.3-0.6,1-0.9,1.5-1.4c2.2-2.3,4.3-4.6,6.5-6.9c-3.3-0.2-6.6-0.5-9.9-0.5c-11.6-0.1-23.3,0-34.9,0
			C1.1,14.7,1.1,13.7,1,12.7"/>
	</g>
</g>
</svg>
