<?xml version="1.0" encoding="utf-8"?>
<!-- Generator: Adobe Illustrator 22.0.0, SVG Export Plug-In . SVG Version: 6.00 Build 0)  -->
<svg version="1.1" id="Ebene_1" xmlns="http://www.w3.org/2000/svg" xmlns:xlink="http://www.w3.org/1999/xlink" x="0px" y="0px"
	 width="425px" height="30px" viewBox="0 0 425 30" style="enable-background:new 0 0 425 30;" xml:space="preserve">
<style type="text/css">
	.st0{fill:#F59C08;}
	.st1{fill:#FFFFFF;}
	.st2{fill:#4EAE33;}
	.st3{fill:#CC2917;}
</style>
<path class="st0" d="M8.5,11.7l4.6,4.6l4.6-4.6l1.4,1.4l-6,6l-6-6L8.5,11.7z"/>
<path class="st1" d="M30.1,19.9l4.6-4.6l-4.6-4.6l1.4-1.4l6,6l-6,6L30.1,19.9z"/>
<path class="st1" d="M101.5,11.4c0-3.3-2.7-6-6-6s-6,2.7-6,6c0,4.5,6,11,6,11S101.5,15.9,101.5,11.4z M93.5,11.4c0-1.1,0.9-2,2-2
	s2,0.9,2,2s-0.9,2-2,2C94.4,13.4,93.5,12.5,93.5,11.4z M88.5,23.4v2h14v-2H88.5z"/>
<path class="st1" d="M123.7,10.4h-2v4h-4v2h4v4h2v-4h4v-2h-4V10.4z M122.7,5.4c-5.5,0-10,4.5-10,10s4.5,10,10,10s10-4.5,10-10
	S128.2,5.4,122.7,5.4z M122.7,23.4c-4.4,0-8-3.6-8-8s3.6-8,8-8c4.4,0,8,3.6,8,8S127.1,23.4,122.7,23.4z"/>
<g>
	<path class="st1" d="M152.8,5.4c-5.5,0-10,4.5-10,10c0,5.5,4.5,10,10,10s10-4.5,10-10C162.8,9.8,158.3,5.4,152.8,5.4z M152.8,23.4
		c-4.4,0-8-3.6-8-8c0-4.4,3.6-8,8-8s8,3.6,8,8C160.8,19.8,157.2,23.4,152.8,23.4z"/>
	<polygon class="st1" points="147.8,14.4 147.8,16.4 151.8,16.4 157.8,16.4 157.8,14.4 151.8,14.4 	"/>
</g>
<path class="st1" d="M186.9,12.9h-4v-6h-6v6h-4l7,7L186.9,12.9z M172.9,21.9v2h14v-2H172.9z"/>
<path class="st1" d="M217.7,4.4h-18c-1.1,0-2,0.9-2,2v18c0,1.1,0.9,2,2,2h18c1.1,0,2-0.9,2-2v-18C219.7,5.3,218.8,4.4,217.7,4.4z
	 M200.7,23.4c-0.6,0-1-0.4-1-1s0.4-1,1-1s1,0.4,1,1S201.2,23.4,200.7,23.4z M200.7,19.4c-0.6,0-1-0.4-1-1s0.4-1,1-1s1,0.4,1,1
	S201.2,19.4,200.7,19.4z M204.7,23.4c-0.6,0-1-0.4-1-1s0.4-1,1-1s1,0.4,1,1S205.2,23.4,204.7,23.4z M204.7,19.4c-0.6,0-1-0.4-1-1
	s0.4-1,1-1s1,0.4,1,1S205.2,19.4,204.7,19.4z M204.7,15.4c-0.6,0-1-0.4-1-1s0.4-1,1-1s1,0.4,1,1S205.2,15.4,204.7,15.4z M208.7,23.4
	c-0.6,0-1-0.4-1-1s0.4-1,1-1s1,0.4,1,1S209.2,23.4,208.7,23.4z M208.7,19.4c-0.6,0-1-0.4-1-1s0.4-1,1-1s1,0.4,1,1
	S209.2,19.4,208.7,19.4z M208.7,15.4c-0.6,0-1-0.4-1-1s0.4-1,1-1s1,0.4,1,1S209.2,15.4,208.7,15.4z M212.7,23.4c-0.6,0-1-0.4-1-1
	s0.4-1,1-1s1,0.4,1,1S213.2,23.4,212.7,23.4z M212.7,19.4c-0.6,0-1-0.4-1-1s0.4-1,1-1s1,0.4,1,1S213.2,19.4,212.7,19.4z M211.7,14.4
	c0-0.6,0.4-1,1-1s1,0.4,1,1s-0.4,1-1,1S211.7,14.9,211.7,14.4z M216.7,19.4c-0.6,0-1-0.4-1-1s0.4-1,1-1s1,0.4,1,1
	S217.2,19.4,216.7,19.4z M216.7,15.4c-0.6,0-1-0.4-1-1s0.4-1,1-1s1,0.4,1,1S217.2,15.4,216.7,15.4z M217.7,10.4h-18v-4h18V10.4z"/>
<g>
	<path class="st1" d="M245.1,10.4c-0.1-0.2-0.4-0.3-0.6-0.3c-0.1,0-0.1,0-0.2,0.1c-0.1,0-0.1,0-0.1-0.1c0-0.2,0-0.5,0-0.7
		c0-0.2-0.1-0.4-0.3-0.5c-0.3-0.2-0.7,0.1-0.7,0.4c0,0.4,0,0.7,0,1.1c0,0.1,0,0.2-0.2,0.3c-0.4,0.2-0.8,0.4-1.2,0.6
		c-0.1,0.1-0.2,0-0.3,0c-0.8-0.6-1.6-1.2-2.5-1.8c-0.1-0.1-0.3-0.2-0.4-0.2c-0.7-0.2-1.3-0.4-2-0.5c-0.2-0.1-0.4,0-0.5,0.1
		c-0.1,0.1-0.2,0.3-0.3,0.5c-0.1,0.3-0.2,0.6-0.3,0.9c-0.3,1.1-0.6,2.3-1,3.4c-0.2,0.5-0.3,1.1-0.4,1.7c0,0,0,0.1,0,0.1c0,0,0,0,0,0
		c-0.1,0.6-0.4,3.4-0.5,4c0,0.3,0,0.6-0.2,0.9c-0.1,0.4-0.3,0.7-0.5,1.1c-0.5,1-0.9,2-1.4,3.1c-0.1,0.2-0.2,0.5-0.2,0.7
		c0,0.3,0.1,0.5,0.5,0.5c0.2,0,0.3-0.1,0.4-0.2c0.4-0.3,0.7-0.7,1-1.1c0.6-0.9,1.1-1.7,1.7-2.6c0.3-0.5,0.7-2.4,1-3.5
		c0.8,0.7,1.6,1.3,2.4,2c0.2,0.2,0.3,0.3,0.3,0.6c0,0.1,0,0.2,0,0.3c-0.1,1-0.2,2.1-0.3,3.1c0,0.4-0.1,0.9,0.1,1.3
		c0.1,0.3,0.3,0.4,0.6,0.4c0.3,0,0.4-0.2,0.5-0.4c0.2-0.3,0.3-0.7,0.4-1.1c0.2-0.8,0.3-1.7,0.5-2.5c0.1-0.7,0.3-1.3,0.4-2
		c0.1-0.5,0-1-0.5-1.4c-0.8-0.8-1.6-1.6-2.4-2.4c-0.1-0.1-0.1-0.2-0.1-0.4c0.2-0.8,0.4-1.7,0.6-2.5c0.1-0.5,0.3-1.1,0.4-1.6
		c0.1,0.1,0.3,0.2,0.4,0.3c0.6,0.4,1.1,0.8,1.7,1.2c0.4,0.3,0.8,0.3,1.2,0c0.4-0.2,0.7-0.5,1.1-0.7c0.1-0.1,0.2-0.1,0.2,0.1
		c0,0,0,0,0,0.1c0,4.2,0,8.5,0,12.7c0,0.3,0,0.5,0.2,0.7c0.2,0,0.4,0,0.5,0c0.2-0.2,0.2-0.4,0.2-0.7c0-4.4,0-8.9,0-13.3
		c0-0.2,0.1-0.3,0.2-0.3c0.3-0.2,0.5-0.4,0.7-0.6C245.2,10.8,245.2,10.6,245.1,10.4z"/>
	<path class="st1" d="M233.8,14c0.4-1.1,0.7-2.3,1.1-3.5c0.1-0.4,0.3-0.8,0.4-1.3c0.1-0.5-0.2-0.9-0.7-0.9c-0.1,0-0.1,0-0.2,0
		c-0.8,0-1.4,0.4-1.9,0.9c-0.6,0.7-1.2,1.4-1.6,2.2c-0.3,0.5-0.5,1.1-0.6,1.7c-0.1,0.4,0,0.7,0.3,1c0.6,0.5,1.2,0.7,1.8,0.8
		C233.1,14.9,233.6,14.6,233.8,14z"/>
	<path class="st1" d="M238.4,8.8c1.1,0,2-0.9,2-2c0-1.1-0.9-2-2-2c-1.1,0-2,0.9-2,2C236.4,7.8,237.3,8.7,238.4,8.8z"/>
</g>
<g>
	<path class="st1" d="M283.3,13.9c-0.6,0-1,0.4-1,1h-24c0-0.6-0.4-1-1-1c-0.6,0-1,0.4-1,1v11c0,0.6,0.4,1,1,1s1-0.4,1-1v-1h24v1
		c0,0.6,0.4,1,1,1s1-0.4,1-1v-11C284.3,14.3,283.8,13.9,283.3,13.9z"/>
	<path class="st1" d="M260.3,10.9c0-0.6,0.4-1,1-1h7c0.6,0,1,0.4,1,1v2h2v-2c0-0.6,0.4-1,1-1h7c0.6,0,1,0.4,1,1v2h2v-7
		c0-1.1-0.9-2-2-2h-20c-1.1,0-2,0.9-2,2v7h2V10.9z"/>
</g>
<g>
	<path class="st1" d="M313.7,2.4c-0.4,0-0.7,0.2-0.8,0.5l0,0c0,0-3.2,4.6-3.2,9.5v2c0,0.7,0.2,1.3,0.7,1.8l1.3,1.3v9.4
		c0,0.8,0.7,1.5,1.5,1.5s1.5-0.7,1.5-1.5V3.4C314.7,2.8,314.2,2.4,313.7,2.4z"/>
	<path class="st1" d="M303.8,2.8c0-0.3-0.3-0.4-0.5-0.4c-0.3,0-0.5,0.2-0.5,0.5v5.8c0,0.4-0.3,0.6-0.6,0.6c-0.3,0-0.6-0.2-0.6-0.6
		l-0.7-5.9c0-0.3-0.3-0.5-0.5-0.5h0h0c-0.3,0-0.5,0.2-0.5,0.5L299,8.8c0,0.3-0.3,0.6-0.6,0.6c-0.4,0-0.6-0.3-0.6-0.6V2.9
		c0-0.3-0.2-0.5-0.5-0.5c-0.3,0-0.5,0.2-0.5,0.4c-0.2,1.3-0.9,4.9-0.9,6.6c0,4,3,5,3,5v12.5c0,0.8,0.7,1.5,1.5,1.5s1.5-0.7,1.5-1.5
		V14.4c0,0,3-1,3-5C304.7,7.7,304,4.1,303.8,2.8z"/>
</g>
<g>
	<g>
		<path class="st1" d="M347.4,19c-0.4,0.5-0.8,1.1-1,1.7h-16c-0.2-0.7-0.6-1.2-1-1.7h-1.5c-0.7,0-1.3-0.2-1.9-0.5h-0.5v1.7
			c0,0.7,0.5,1.5,0.9,1.9c0.3,0.3,1,0.5,1.5,0.5H349c1.3,0,2.4-1.1,2.4-2.4v-2c-0.6,0.6-1.5,0.9-2.4,0.9L347.4,19L347.4,19z"/>
		<path class="st1" d="M349,3.5h-21.2c-1.3,0-2.4,1-2.4,2.4v9.5c0,0.7,0.5,1.5,0.9,1.9c0.3,0.3,1,0.5,1.5,0.5H349
			c1.3,0,2.4-1.1,2.4-2.4V5.9C351.4,4.6,350.3,3.5,349,3.5z M349.6,12.7c-1.4,0.5-2.6,1.7-3.2,3.3h-16c-0.6-1.6-1.9-2.7-3.2-3.3V8.5
			c1.4-0.5,2.6-1.6,3.2-3.3h16c0.6,1.7,1.8,2.8,3.2,3.3L349.6,12.7L349.6,12.7z"/>
		<path class="st1" d="M338.4,6.4c-2.3,0-4.2,1.9-4.2,4.2c0,2.3,1.9,4.2,4.2,4.2c2.3,0,4.2-1.9,4.2-4.2
			C342.6,8.3,340.7,6.4,338.4,6.4z"/>
		<path class="st1" d="M347.4,23.7c-0.4,0.5-0.8,1.1-1,1.7h-16c-0.2-0.7-0.6-1.2-1-1.7h-1.5c-0.7,0-1.3-0.2-1.9-0.5h-0.5v1.7
			c0,0.7,0.5,1.5,0.9,1.9c0.3,0.3,1,0.5,1.5,0.5H349c1.3,0,2.4-1.1,2.4-2.4v-2c-0.6,0.6-1.5,0.9-2.4,0.9L347.4,23.7L347.4,23.7z"/>
	</g>
</g>
<polygon class="st2" points="369.7,25.2 361.7,17.2 365.1,13.8 369.7,18.4 382.5,5.6 385.9,8.9 "/>
<polygon class="st3" points="410.9,5.7 404.7,11.9 398.4,5.7 395,9.1 401.3,15.4 395,21.6 398.4,25 404.7,18.8 410.9,25 414.3,21.6 
	408.1,15.4 414.3,9.1 "/>
<path class="st1" d="M57.5,19.1l-4.6-4.6l-4.6,4.6l-1.4-1.4l6-6l6,6L57.5,19.1z"/>
<polygon class="st1" points="76.3,11.4 73.7,13.9 71.1,11.4 69.7,12.8 72.3,15.4 69.7,17.9 71.1,19.4 73.7,16.8 76.3,19.4 
	77.7,17.9 75.1,15.4 77.7,12.8 "/>
</svg>
