<?xml version="1.0" encoding="utf-8"?>
<!-- Generator: Adobe Illustrator 22.0.1, SVG Export Plug-In . SVG Version: 6.00 Build 0)  -->
<svg version="1.1" id="Ebene_1" xmlns="http://www.w3.org/2000/svg" xmlns:xlink="http://www.w3.org/1999/xlink" x="0" y="0" width="569" height="50"
	 viewBox="0 0 569 50" style="enable-background:new 0 0 569 50;" xml:space="preserve" preserveAspectRatio="none slice">
<style type="text/css">
	.st0{fill:#FFFFFF;}
	.st1{fill:#404040;}
	.st2{opacity:0.3;enable-background:new    ;}
</style>
<g>
	<polygon class="st0" points="182.6,22.5 182.6,27.5 172.6,27.5 172.6,37.5 167.6,37.5 167.6,27.5 157.6,27.5 157.6,22.5 
		167.6,22.5 167.6,12.5 172.6,12.5 172.6,22.5 	"/>
	<path class="st0" d="M170.1,0c13.8,0,25,11.2,25,25s-11.2,25-25,25s-25-11.2-25-25S156.3,0,170.1,0z M170.1,45c11.1,0,20-9,20-20
		s-9-20-20-20s-20,9-20,20S159.1,45,170.1,45z"/>
</g>
<path class="st1" d="M235.5,12.5l25,25l25-25H235.5z"/>
<path class="st0" d="M339.5,21.6c4,7.9,10.4,14.3,18.3,18.3l6.1-6.1c0.8-0.8,1.9-1,2.8-0.7c3.1,1,6.5,1.6,9.9,1.6
	c1.5,0,2.8,1.3,2.8,2.8v9.7c0,1.5-1.3,2.8-2.8,2.8c-26.1,0-47.2-21.1-47.2-47.2c0-1.5,1.3-2.8,2.8-2.8h9.7c1.5,0,2.8,1.3,2.8,2.8
	c0,3.5,0.6,6.8,1.6,9.9c0.3,1,0.1,2.1-0.7,2.8L339.5,21.6z"/>
<path class="st0" d="M30.8,44.1L11.7,25L30.8,5.9L25,0L0,25l25,25L30.8,44.1z"/>
<path class="st0" d="M71.4,44.1L90.5,25L71.4,5.9L77.3,0l25,25l-25,25L71.4,44.1z"/>
<path class="st0" d="M473,0h-50c-3.4,0-6.2,2.8-6.2,6.3v37.5c0,3.4,2.8,6.3,6.3,6.3h50c3.4,0,6.3-2.8,6.3-6.3V6.3
	C479.2,2.8,476.4,0,473,0z M473,12.5l-25,15.6l-25-15.6V6.3l25,15.6l25-15.6V12.5z"/>
<path class="st0" d="M568.8,37.5l-25-25l-25,25H568.8z"/>
<path class="st2" d="M190.1,25c0,11-8.9,20-20,20c-11,0-20-9-20-20s9-20,20-20S190.1,14,190.1,25z M182.6,27.5v-5h-10v-10h-5v10h-10
	v5h10v10h5v-10H182.6z"/>
</svg>
