<?xml version="1.0" encoding="utf-8"?>
<!-- Generator: Adobe Illustrator 27.0.1, SVG Export Plug-In . SVG Version: 6.00 Build 0)  -->
<svg version="1.1" id="Ebene_1" xmlns="http://www.w3.org/2000/svg" xmlns:xlink="http://www.w3.org/1999/xlink" x="0px" y="0px"
	 viewBox="0 0 70 70" style="enable-background:new 0 0 70 70;" xml:space="preserve">
<style type="text/css">
	.st0{fill:#FFFFFF;}
	.st1{fill:none;stroke:#000000;}
</style>
<rect y="0" class="st0" width="70" height="70"/>
<rect x="0.5" y="0.5" class="st1" width="69" height="69"/>
<path d="M53.8,66.3c-3,0-5.5-1.1-7.3-3.3c-1.8-2.2-2.7-5.4-2.7-9.7c0-4.3,0.9-7.6,2.8-9.8c1.9-2.2,4.3-3.3,7.3-3.3
	c1.9,0,3.4,0.4,4.6,1.1c1.2,0.7,2.2,1.6,2.9,2.6h0.3c-0.1-0.4-0.1-1.1-0.2-1.9c-0.1-0.8-0.1-1.6-0.1-2.2v-9.4h4.9v35.3h-3.9
	l-0.8-3.3h-0.2c-0.7,1.1-1.7,2-2.9,2.7C57.3,65.9,55.8,66.3,53.8,66.3z M55,62.2c2.4,0,4.1-0.7,5.1-2c1-1.3,1.5-3.4,1.5-6.1v-0.7
	c0-2.9-0.5-5.2-1.4-6.7c-0.9-1.5-2.7-2.3-5.2-2.3c-2,0-3.5,0.8-4.6,2.4c-1,1.6-1.5,3.8-1.5,6.7c0,2.8,0.5,5,1.5,6.5
	C51.4,61.5,52.9,62.2,55,62.2z"/>
<g>
	<path d="M24.8,41.1h16.8v23.2c-2.5,0.8-5,1.4-7.6,1.9c-2.6,0.4-5.5,0.6-8.8,0.6c-7.1,0-12.6-2.1-16.4-6.3C5,56.2,3.1,50.3,3.1,42.8
		c0-4.9,0.9-9.1,2.8-12.7c1.9-3.6,4.6-6.4,8.2-8.3c3.6-2,8-2.9,13.1-2.9c2.6,0,5,0.3,7.4,0.8c2.3,0.5,4.5,1.2,6.5,2l-2.5,5.9
		c-1.6-0.7-3.4-1.4-5.4-1.9c-2-0.5-4.1-0.8-6.2-0.8c-3.4,0-6.4,0.7-8.9,2.2c-2.5,1.5-4.4,3.5-5.7,6.2c-1.3,2.7-2,5.9-2,9.5
		c0,3.5,0.5,6.6,1.6,9.3c1.1,2.7,2.8,4.8,5.2,6.3c2.3,1.5,5.4,2.3,9.2,2.3c1.9,0,3.4-0.1,4.7-0.3c1.3-0.2,2.5-0.4,3.6-0.7V47.1h-9.8
		V41.1z"/>
</g>
</svg>
